<svg xmlns="http://www.w3.org/2000/svg" width="512" height="512" viewBox="0 0 512 512">
  <defs>
    <linearGradient id="g" x1="0" y1="0" x2="1" y2="1">
      <stop offset="0" stop-color="#FF7A6B"/>
      <stop offset="0.55" stop-color="#FFB6A3"/>
      <stop offset="1" stop-color="#E8B04B"/>
    </linearGradient>
  </defs>
  <rect width="512" height="512" rx="120" fill="url(#g)"/>
  <g transform="translate(256,250)" fill="#FFFFFF">
    <path d="M-120,-95 L-70,-15 L-160,-35 Z"/>
    <path d="M120,-95 L70,-15 L160,-35 Z"/>
    <ellipse cx="0" cy="0" rx="130" ry="120"/>
  </g>
  <g transform="translate(256,250)">
    <ellipse cx="-50" cy="-12" rx="18" ry="26" fill="#2A2432"/>
    <ellipse cx="50" cy="-12" rx="18" ry="26" fill="#2A2432"/>
    <path d="M-16,40 Q0,56 16,40" fill="none" stroke="#FF7A6B" stroke-width="7" stroke-linecap="round"/>
    <path d="M0,26 L0,42" stroke="#FF7A6B" stroke-width="7" stroke-linecap="round"/>
    <path d="M-90,10 L-20,-6 M-90,26 L-20,10" stroke="#2A2432" stroke-width="4" stroke-linecap="round" opacity="0.4"/>
    <path d="M90,10 L20,-6 M90,26 L20,10" stroke="#2A2432" stroke-width="4" stroke-linecap="round" opacity="0.4"/>
  </g>
  <path transform="translate(256,395)" d="M0,20 C-28,-8 -70,4 -50,40 C-38,62 0,78 0,78 C0,78 38,62 50,40 C70,4 28,-8 0,20 Z" fill="#FFFFFF" opacity="0.95"/>
</svg>
